<svg width="36" height="36" viewBox="0 0 36 36" fill="none" xmlns="http://www.w3.org/2000/svg">
<mask id="mask0_301_2754" style="mask-type:alpha" maskUnits="userSpaceOnUse" x="7" y="3" width="28" height="30">
<path d="M33.8044 16.2005C35.2319 16.986 35.2319 19.0141 33.8044 19.7995L10.9758 32.3616C9.58558 33.1266 7.875 32.1339 7.875 30.562L7.875 5.43796C7.875 3.86615 9.58558 2.87342 10.9758 3.63842L33.8044 16.2005Z" fill="#C4C4C4"/>
</mask>
<g mask="url(#mask0_301_2754)">
<path d="M8.58907 32.1148L22.8288 17.795L8.82358 3.71106C8.26485 4.06924 7.875 4.68764 7.875 5.43801V30.5621C7.875 31.2023 8.15876 31.7464 8.58907 32.1148Z" fill="url(#paint0_linear_301_2754)"/>
<path d="M33.8044 16.2004C35.2318 16.9859 35.2318 19.014 33.8044 19.7995L28.0452 22.9686L22.8288 17.7948L27.7792 12.8849L33.8044 16.2004Z" fill="url(#paint1_linear_301_2754)"/>
<path d="M28.0452 22.9685L22.8289 17.7947L8.58903 32.1145C9.21523 32.6507 10.1518 32.8148 10.9758 32.3614L28.0452 22.9685Z" fill="url(#paint2_linear_301_2754)"/>
<path d="M8.82362 3.71098L22.8289 17.7949L27.7792 12.8849L10.9758 3.63842C10.2493 3.23863 9.43527 3.31889 8.82362 3.71098Z" fill="url(#paint3_linear_301_2754)"/>
</g>
<defs>
<linearGradient id="paint0_linear_301_2754" x1="17.6365" y1="12.2331" x2="7.95494" y2="21.9943" gradientUnits="userSpaceOnUse">
<stop stop-color="#00C3FF"/>
<stop offset="1" stop-color="#1BE2FA"/>
</linearGradient>
<linearGradient id="paint1_linear_301_2754" x1="22.8288" y1="17.7949" x2="35.7058" y2="17.7949" gradientUnits="userSpaceOnUse">
<stop stop-color="#FFCE00"/>
<stop offset="1" stop-color="#FFEA00"/>
</linearGradient>
<linearGradient id="paint2_linear_301_2754" x1="8.2904" y1="33.8625" x2="25.4193" y2="20.13" gradientUnits="userSpaceOnUse">
<stop stop-color="#DE2453"/>
<stop offset="1" stop-color="#FE3944"/>
</linearGradient>
<linearGradient id="paint3_linear_301_2754" x1="9.12116" y1="2.13904" x2="25.4222" y2="15.4535" gradientUnits="userSpaceOnUse">
<stop stop-color="#11D574"/>
<stop offset="1" stop-color="#01F176"/>
</linearGradient>
</defs>
</svg>
